<svg xmlns="http://www.w3.org/2000/svg" xmlns:xlink="http://www.w3.org/1999/xlink" viewBox="0 0 2765.67 2765.67"><defs><style>.cls-1{opacity:0.5;}.cls-2{fill:url(#linear-gradient);}.cls-3{fill:url(#radial-gradient);}.cls-4{fill:url(#radial-gradient-2);}.cls-5{fill:url(#radial-gradient-3);}.cls-6{fill:url(#radial-gradient-4);}.cls-7{fill:url(#radial-gradient-5);}.cls-8{fill:url(#radial-gradient-6);}.cls-9{fill:url(#radial-gradient-7);}.cls-10{opacity:0.3;}.cls-11{fill:url(#radial-gradient-8);}.cls-12{fill:url(#radial-gradient-9);}.cls-13{fill:url(#radial-gradient-10);}.cls-14{fill:url(#radial-gradient-11);}.cls-15{fill:url(#radial-gradient-12);}.cls-16{fill:url(#radial-gradient-13);}.cls-17{fill:url(#linear-gradient-2);}.cls-18{fill:url(#radial-gradient-14);}.cls-19{fill:url(#linear-gradient-3);}.cls-20{fill:url(#linear-gradient-4);}.cls-21{fill:url(#linear-gradient-5);}.cls-22{fill:url(#radial-gradient-15);}.cls-23{fill:url(#linear-gradient-6);}.cls-24{fill:url(#linear-gradient-7);}.cls-25{fill:url(#linear-gradient-8);}.cls-26{fill:url(#linear-gradient-9);}.cls-27{fill:url(#linear-gradient-10);}.cls-28{fill:url(#radial-gradient-16);}.cls-29{fill:url(#linear-gradient-11);}.cls-30{fill:url(#radial-gradient-17);}.cls-31{fill:url(#linear-gradient-12);}.cls-32{fill:url(#radial-gradient-18);}.cls-33{fill:url(#radial-gradient-19);}.cls-34{fill:url(#radial-gradient-20);}.cls-35{fill:url(#radial-gradient-21);}.cls-36{fill:url(#linear-gradient-13);}.cls-37{fill:url(#radial-gradient-22);}.cls-38{fill:url(#linear-gradient-14);}.cls-39{fill:url(#radial-gradient-23);}.cls-40{fill:url(#radial-gradient-24);}.cls-41{fill:url(#radial-gradient-25);}.cls-42{fill:url(#linear-gradient-15);}.cls-43{fill:url(#linear-gradient-16);}.cls-44{fill:url(#radial-gradient-26);}.cls-45{fill:url(#linear-gradient-17);}.cls-46{fill:url(#linear-gradient-18);}.cls-47{fill:url(#radial-gradient-27);}.cls-48{fill:url(#radial-gradient-28);}.cls-49{fill:url(#radial-gradient-29);}.cls-50{fill:url(#radial-gradient-30);}.cls-51{fill:url(#linear-gradient-19);}.cls-52{fill:url(#linear-gradient-20);}.cls-53{fill:url(#linear-gradient-21);}</style><linearGradient id="linear-gradient" x1="2280.97" y1="2143.68" x2="2677.57" y2="2143.68" gradientUnits="userSpaceOnUse"><stop offset="0" stop-color="#101921" stop-opacity="0"/><stop offset="0.54" stop-color="#0cf" stop-opacity="0.46"/><stop offset="1" stop-color="#0fc"/></linearGradient><radialGradient id="radial-gradient" cx="2714.62" cy="1445.04" r="306.4" gradientUnits="userSpaceOnUse"><stop offset="0" stop-color="#0fc"/><stop offset="0.54" stop-color="#0cf" stop-opacity="0.46"/><stop offset="1" stop-color="#101921" stop-opacity="0"/></radialGradient><radialGradient id="radial-gradient-2" cx="2643.19" cy="859.17" r="131" xlink:href="#radial-gradient"/><radialGradient id="radial-gradient-3" cx="2226.91" cy="397.74" r="331.7" xlink:href="#radial-gradient"/><radialGradient id="radial-gradient-4" cx="1425.69" cy="52.95" r="327.11" xlink:href="#radial-gradient"/><radialGradient id="radial-gradient-5" cx="605.38" cy="344.55" r="331.86" xlink:href="#radial-gradient"/><radialGradient id="radial-gradient-6" cx="124.97" cy="940.58" r="246.56" xlink:href="#radial-gradient"/><radialGradient id="radial-gradient-7" cx="75.38" cy="1621.33" r="265.09" xlink:href="#radial-gradient"/><radialGradient id="radial-gradient-8" cx="371.87" cy="2247.98" r="254.98" xlink:href="#radial-gradient"/><radialGradient id="radial-gradient-9" cx="698.32" cy="2571.15" r="87.07" xlink:href="#radial-gradient"/><radialGradient id="radial-gradient-10" cx="1277.2" cy="2693.29" r="348.52" xlink:href="#radial-gradient"/><radialGradient id="radial-gradient-11" cx="2022.85" cy="2563.01" r="220.04" xlink:href="#radial-gradient"/><radialGradient id="radial-gradient-12" cx="432.17" cy="1915.67" r="240.53" xlink:href="#radial-gradient"/><radialGradient id="radial-gradient-13" cx="957.14" cy="2361.95" r="286.58" xlink:href="#radial-gradient"/><linearGradient id="linear-gradient-2" x1="1313.34" y1="2384.59" x2="2130.72" y2="2384.59" xlink:href="#radial-gradient"/><radialGradient id="radial-gradient-14" cx="2321.25" cy="1855.39" r="317.19" xlink:href="#radial-gradient"/><linearGradient id="linear-gradient-3" x1="2200.29" y1="1030.25" x2="2528.57" y2="1030.25" xlink:href="#radial-gradient"/><linearGradient id="linear-gradient-4" x1="1019.07" y1="420.73" x2="2214.29" y2="420.73" xlink:href="#linear-gradient"/><linearGradient id="linear-gradient-5" x1="355.64" y1="588.75" x2="1033.08" y2="588.75" xlink:href="#linear-gradient"/><radialGradient id="radial-gradient-15" cx="303.38" cy="1251.86" r="274.48" xlink:href="#radial-gradient"/><linearGradient id="linear-gradient-6" x1="1736.03" y1="616.72" x2="427.07" y2="616.72" xlink:href="#radial-gradient"/><linearGradient id="linear-gradient-7" x1="318.43" y1="1111.5" x2="441.07" y2="1111.5" xlink:href="#linear-gradient"/><linearGradient id="linear-gradient-8" x1="316.14" y1="1513.9" x2="383.28" y2="1513.9" xlink:href="#radial-gradient"/><linearGradient id="linear-gradient-9" x1="369.27" y1="2048.04" x2="1033.08" y2="2048.04" xlink:href="#radial-gradient"/><linearGradient id="linear-gradient-10" x1="1664.46" y1="2099.03" x2="2366.26" y2="2099.03" xlink:href="#radial-gradient"/><radialGradient id="radial-gradient-16" cx="2400.89" cy="1403.77" r="283.91" xlink:href="#radial-gradient"/><linearGradient id="linear-gradient-11" x1="2382.92" y1="696.6" x2="1722.03" y2="696.6" xlink:href="#radial-gradient"/><radialGradient id="radial-gradient-17" cx="1799.21" cy="1419.39" r="375.72" xlink:href="#radial-gradient"/><linearGradient id="linear-gradient-12" x1="1262.07" y1="861.21" x2="1754.9" y2="861.21" xlink:href="#linear-gradient"/><radialGradient id="radial-gradient-18" cx="1099.32" cy="910.31" r="146.8" xlink:href="#radial-gradient"/><radialGradient id="radial-gradient-19" cx="863.46" cy="1226.08" r="164.51" xlink:href="#radial-gradient"/><radialGradient id="radial-gradient-20" cx="927.8" cy="1654.13" r="183.12" xlink:href="#radial-gradient"/><radialGradient id="radial-gradient-21" cx="1251.84" cy="1918.32" r="149.33" xlink:href="#radial-gradient"/><linearGradient id="linear-gradient-13" x1="1019.08" y1="2411.75" x2="1678.47" y2="2411.75" xlink:href="#radial-gradient"/><radialGradient id="radial-gradient-22" cx="864.55" cy="721.28" r="364.56" xlink:href="#radial-gradient"/><linearGradient id="linear-gradient-14" x1="395.18" y1="1393.58" x2="481.88" y2="1393.58" xlink:href="#radial-gradient"/><radialGradient id="radial-gradient-23" cx="796.67" cy="2040.75" r="311.74" xlink:href="#radial-gradient"/><radialGradient id="radial-gradient-24" cx="1604.41" cy="518.97" r="100.52" xlink:href="#radial-gradient"/><radialGradient id="radial-gradient-25" cx="2005.46" cy="1788.27" r="256.64" xlink:href="#radial-gradient"/><linearGradient id="linear-gradient-15" x1="2044.65" y1="1198.04" x2="2212.42" y2="1198.04" xlink:href="#linear-gradient"/><linearGradient id="linear-gradient-16" x1="980.69" y1="732.04" x2="2058.65" y2="732.04" xlink:href="#linear-gradient"/><radialGradient id="radial-gradient-26" cx="773.97" cy="1121.99" r="365.75" xlink:href="#radial-gradient"/><linearGradient id="linear-gradient-17" x1="577.72" y1="1720.17" x2="717.97" y2="1720.17" xlink:href="#radial-gradient"/><linearGradient id="linear-gradient-18" x1="703.97" y1="2031.49" x2="1616.95" y2="2031.49" xlink:href="#radial-gradient"/><radialGradient id="radial-gradient-27" cx="1711.33" cy="2128.99" r="84.91" xlink:href="#radial-gradient"/><radialGradient id="radial-gradient-28" cx="1438.49" cy="835.46" r="335.4" xlink:href="#radial-gradient"/><radialGradient id="radial-gradient-29" cx="915.75" cy="921.32" r="79.38" xlink:href="#radial-gradient"/><radialGradient id="radial-gradient-30" cx="843.68" cy="1448.48" r="339.38" xlink:href="#radial-gradient"/><linearGradient id="linear-gradient-19" x1="962.04" y1="1975.09" x2="1678.46" y2="1975.09" xlink:href="#radial-gradient"/><linearGradient id="linear-gradient-20" x1="1664.46" y1="1582.78" x2="2054.35" y2="1582.78" xlink:href="#radial-gradient"/><linearGradient id="linear-gradient-21" x1="2024.1" y1="1068.3" x2="1882.29" y2="1068.3" xlink:href="#radial-gradient"/></defs><title>Thorchain_Clockwise</title><g id="Layer_2" data-name="Layer 2"><g id="Layer_1-2" data-name="Layer 1"><g class="cls-1"><path class="cls-2" d="M2288,2426a7,7,0,0,1-4.61-12.27A1371.56,1371.56,0,0,0,2664,1865.86a7,7,0,1,1,13.1,4.94,1385.31,1385.31,0,0,1-384.55,553.51A7,7,0,0,1,2288,2426Z"/></g><path class="cls-3" d="M2670.57,1875.33a7.09,7.09,0,0,1-2.47-.45,7,7,0,0,1-4.08-9c58.16-154.2,87.65-316.71,87.65-483A1372.26,1372.26,0,0,0,2704,1023.58a7,7,0,0,1,13.52-3.67,1386.9,1386.9,0,0,1,48.11,362.93c0,168-29.79,332.18-88.55,488A7,7,0,0,1,2670.57,1875.33Z"/><g class="cls-1"><path class="cls-4" d="M2710.8,1028.75a7,7,0,0,1-6.76-5.17,1361.51,1361.51,0,0,0-134.53-323.49,7,7,0,0,1,12.13-7,1375.74,1375.74,0,0,1,135.92,326.81,7,7,0,0,1-4.93,8.59A6.84,6.84,0,0,1,2710.8,1028.75Z"/></g><g class="cls-1"><path class="cls-5" d="M2575.58,703.59a7,7,0,0,1-6.07-3.5,1373.63,1373.63,0,0,0-693.78-594.67,7,7,0,1,1,5-13.06A1387.77,1387.77,0,0,1,2581.64,693.1a7,7,0,0,1-6.06,10.49Z"/></g><path class="cls-6" d="M1878.25,105.89a6.94,6.94,0,0,1-2.52-.47C1718.61,44.76,1552.78,14,1382.84,14A1368.7,1368.7,0,0,0,975.22,75.72a7,7,0,0,1-4.17-13.37A1383.07,1383.07,0,0,1,1382.84,0c171.67,0,339.2,31.08,497.93,92.36a7,7,0,0,1-2.52,13.53Z"/><path class="cls-7" d="M237.62,627.07a7,7,0,0,1-5.82-10.89A1386.09,1386.09,0,0,1,971.05,62.35a7,7,0,0,1,4.17,13.37A1371.85,1371.85,0,0,0,243.45,624,7,7,0,0,1,237.62,627.07Z"/><g class="cls-1"><path class="cls-8" d="M12.32,1268.09l-.62,0a7,7,0,0,1-6.36-7.58A1374.83,1374.83,0,0,1,231.8,616.18,7,7,0,1,1,243.45,624,1360.88,1360.88,0,0,0,19.29,1261.7,7,7,0,0,1,12.32,1268.09Z"/></g><path class="cls-9" d="M143.77,1988.58a7,7,0,0,1-6.31-4A1375.32,1375.32,0,0,1,35.7,1696.38,1390.14,1390.14,0,0,1,0,1382.84c0-40.79,1.8-81.95,5.34-122.36a7,7,0,0,1,14,1.22c-3.51,40-5.29,80.76-5.29,121.14a1376.22,1376.22,0,0,0,35.34,310.38,1361.23,1361.23,0,0,0,100.72,285.3,7,7,0,0,1-6.29,10.06Z"/><g class="cls-10"><path class="cls-11" d="M600,2521.39a7,7,0,0,1-4-1.25,1390,1390,0,0,1-458.54-535.52,7,7,0,1,1,12.6-6.1A1376,1376,0,0,0,604,2508.64a7,7,0,0,1-4,12.75Z"/></g><path class="cls-12" d="M796.66,2634.92a7,7,0,0,1-3-.67A1385.38,1385.38,0,0,1,596,2520.14a7,7,0,1,1,8-11.5,1371.62,1371.62,0,0,0,195.68,112.94,7,7,0,0,1-3,13.34Z"/><g class="cls-1"><path class="cls-13" d="M1382.84,2765.67a1390.78,1390.78,0,0,1-306.57-34.1,1375.44,1375.44,0,0,1-282.59-97.32,7,7,0,0,1,6-12.67,1360.87,1360.87,0,0,0,279.71,96.34,1379.66,1379.66,0,0,0,676.48-17.68,7,7,0,1,1,3.8,13.47A1385.42,1385.42,0,0,1,1382.84,2765.67Z"/></g><path class="cls-14" d="M1757.74,2714a7,7,0,0,1-1.9-13.74,1366.13,1366.13,0,0,0,527.52-286.47,7,7,0,1,1,9.21,10.54,1379.88,1379.88,0,0,1-532.93,289.4A6.92,6.92,0,0,1,1757.74,2714Z"/><path class="cls-15" d="M593.93,2211a7,7,0,0,1-4.85-1.95,1149.07,1149.07,0,0,1-204.45-263.44,1137.45,1137.45,0,0,1-121-316.81,7,7,0,0,1,13.67-3A1130.11,1130.11,0,0,0,598.78,2199a7,7,0,0,1-4.85,12.05Z"/><g class="cls-1"><path class="cls-16" d="M1320.35,2526.88H1320a1141.78,1141.78,0,0,1-730.89-317.8,7,7,0,0,1,9.7-10.1,1127.68,1127.68,0,0,0,721.94,313.92,7,7,0,0,1-.37,14Z"/></g><g class="cls-1"><path class="cls-17" d="M1382.84,2528.57c-20.92,0-42.07-.57-62.87-1.7a7,7,0,1,1,.75-14c20.55,1.11,41.45,1.68,62.12,1.68a1127.3,1127.3,0,0,0,736.32-272.27,7,7,0,0,1,9.11,10.63,1141.29,1141.29,0,0,1-745.43,275.64Z"/></g><g class="cls-1"><path class="cls-18" d="M2123.72,2254.62a7,7,0,0,1-4.56-12.32A1136.18,1136.18,0,0,0,2391,1897.53a1120.65,1120.65,0,0,0,120.76-434.86,7,7,0,1,1,14,1,1134.51,1134.51,0,0,1-122.27,440.27,1149.9,1149.9,0,0,1-275.22,349A7,7,0,0,1,2123.72,2254.62Z"/></g><path class="cls-19" d="M2518.78,1470.16l-.49,0a7,7,0,0,1-6.5-7.47c1.84-26.39,2.78-53.25,2.78-79.83,0-148-28.13-291.88-83.6-427.68a1128,1128,0,0,0-228.75-353,7,7,0,1,1,10.14-9.66,1141.8,1141.8,0,0,1,231.57,357.35c56.16,137.49,84.64,283.16,84.64,433,0,26.91-1,54.09-2.81,80.8A7,7,0,0,1,2518.78,1470.16Z"/><path class="cls-20" d="M2207.29,604.35a7,7,0,0,1-5.07-2.17,1134.18,1134.18,0,0,0-366.1-256.65c-143.18-62.65-295.69-94.42-453.28-94.42a1130.63,1130.63,0,0,0-354.57,56.65,7,7,0,0,1-4.39-13.3,1144.62,1144.62,0,0,1,359-57.35c159.54,0,313.93,32.16,458.89,95.6a1148.31,1148.31,0,0,1,370.63,259.81,7,7,0,0,1-5.07,11.83Z"/><path class="cls-21" d="M362.64,883.39a7,7,0,0,1-6.26-10.12,1147.59,1147.59,0,0,1,667.5-578.81,7,7,0,0,1,4.39,13.3A1130.35,1130.35,0,0,0,640.5,528.56a1136,1136,0,0,0-271.59,351A7,7,0,0,1,362.64,883.39Z"/><g class="cls-1"><path class="cls-22" d="M270.41,1634.32a7,7,0,0,1-6.83-5.5A1155.87,1155.87,0,0,1,268.11,1117a1139.6,1139.6,0,0,1,88.27-243.7,7,7,0,1,1,12.53,6.24,1126.15,1126.15,0,0,0-87.18,240.7,1142,1142,0,0,0-4.48,505.62,7,7,0,0,1-6.84,8.49Z"/></g><g class="cls-10"><path class="cls-23" d="M434.06,917.31a7,7,0,0,1-6.26-10.13A1070.11,1070.11,0,0,1,814.06,480.27c170-107.37,366.71-164.13,568.78-164.13a1064.66,1064.66,0,0,1,348.47,58.22,7,7,0,0,1-4.57,13.24,1050.48,1050.48,0,0,0-343.9-57.46c-199.42,0-393.52,56-561.31,162a1056.12,1056.12,0,0,0-381.2,421.32A7,7,0,0,1,434.06,917.31Z"/></g><g class="cls-1"><path class="cls-24" d="M325.43,1319.7l-.46,0a7,7,0,0,1-6.53-7.44A1056.68,1056.68,0,0,1,427.8,907.18a7,7,0,0,1,12.53,6.25,1042.72,1042.72,0,0,0-107.92,399.73A7,7,0,0,1,325.43,1319.7Z"/></g><g class="cls-10"><path class="cls-25" d="M376.27,1722.09a7,7,0,0,1-6.64-4.8,1065.67,1065.67,0,0,1-53.49-334.45c0-23.5.78-47.25,2.3-70.6a7,7,0,1,1,14,.92c-1.5,23-2.27,46.49-2.27,69.68a1051.71,1051.71,0,0,0,52.78,330.06,7,7,0,0,1-6.65,9.19Z"/></g><g class="cls-10"><path class="cls-26" d="M1026.08,2388a7,7,0,0,1-2.36-.41,1068.51,1068.51,0,0,1-654.09-670.28,7,7,0,0,1,13.29-4.39,1054.93,1054.93,0,0,0,645.52,661.49,7,7,0,0,1-2.36,13.59Z"/></g><g class="cls-10"><path class="cls-27" d="M1671.46,2409.75a7,7,0,0,1-1.9-13.74,1050.38,1050.38,0,0,0,411.13-225,1055.3,1055.3,0,0,0,272.12-378.4,7,7,0,1,1,12.89,5.45,1067.92,1067.92,0,0,1-692.33,611.45A7,7,0,0,1,1671.46,2409.75Z"/></g><g class="cls-1"><path class="cls-28" d="M2359.25,1802.32a6.9,6.9,0,0,1-2.72-.56,7,7,0,0,1-3.72-9.17c54.89-129.78,82.72-267.64,82.72-409.75a1048.89,1048.89,0,0,0-66.17-368.17,7,7,0,1,1,13.11-4.9,1062.86,1062.86,0,0,1,67.06,373.07c0,144-28.2,283.69-83.83,415.2A7,7,0,0,1,2359.25,1802.32Z"/></g><g class="cls-10"><path class="cls-29" d="M2375.92,1019.22a7,7,0,0,1-6.56-4.55A1054.69,1054.69,0,0,0,1726.74,387.6a7,7,0,0,1,4.57-13.24,1069.13,1069.13,0,0,1,651.16,635.41,7,7,0,0,1-4.11,9A6.75,6.75,0,0,1,2375.92,1019.22Z"/></g><path class="cls-30" d="M1630.1,1920.7a7,7,0,0,1-3-13.35,578.54,578.54,0,0,0,334.18-524.51c0-89.52-19.89-175.33-59.11-255a584.27,584.27,0,0,0-158.68-197.25,7,7,0,0,1,8.73-10.94,598.2,598.2,0,0,1,162.51,202c40.18,81.66,60.55,169.55,60.55,261.23A592.54,592.54,0,0,1,1633.06,1920,7,7,0,0,1,1630.1,1920.7Z"/><path class="cls-31" d="M1747.89,932.07a7,7,0,0,1-4.36-1.53,576,576,0,0,0-360.69-126.19,583.37,583.37,0,0,0-112.42,10.92,7,7,0,0,1-2.7-13.74,597.73,597.73,0,0,1,115.12-11.18A590.13,590.13,0,0,1,1752.26,919.6a7,7,0,0,1-4.37,12.47Z"/><path class="cls-32" d="M929.57,1019.22a7,7,0,0,1-5.42-11.44c87.23-106.55,209.24-179.8,343.57-206.25a7,7,0,1,1,2.7,13.74c-131.14,25.82-250.27,97.34-335.43,201.38A7,7,0,0,1,929.57,1019.22Z"/><path class="cls-33" d="M800.09,1446.94a7,7,0,0,1-7-6.33c-1.85-19.07-2.79-38.51-2.79-57.77a590.2,590.2,0,0,1,133.8-375.06,7,7,0,0,1,10.84,8.87,576.06,576.06,0,0,0-130.64,366.19c0,18.82.92,37.8,2.72,56.42a7,7,0,0,1-6.29,7.65Z"/><path class="cls-34" d="M1055.48,1875.33a7,7,0,0,1-3.91-1.2,599.11,599.11,0,0,1-176.13-185.21,585,585,0,0,1-82.3-248.31,7,7,0,1,1,13.93-1.35,571.37,571.37,0,0,0,80.35,242.42,585.09,585.09,0,0,0,172,180.85,7,7,0,0,1-3.93,12.8Z"/><path class="cls-35" d="M1382.84,1975.32a589.52,589.52,0,0,1-331.27-101.19,7,7,0,1,1,7.84-11.6,575.54,575.54,0,0,0,323.43,98.79,588.17,588.17,0,0,0,64.57-3.56,7,7,0,0,1,1.55,13.91A601.55,601.55,0,0,1,1382.84,1975.32Z"/><g class="cls-10"><path class="cls-36" d="M1382.84,2449.53a1064,1064,0,0,1-359.12-62,7,7,0,0,1,4.72-13.18A1058.66,1058.66,0,0,0,1669.56,2396a7,7,0,0,1,3.81,13.48A1068.86,1068.86,0,0,1,1382.84,2449.53Z"/></g><g class="cls-10"><path class="cls-37" d="M466.38,1040.1a6.92,6.92,0,0,1-2.5-.47,7,7,0,0,1-4-9,988.72,988.72,0,0,1,802-628.09,7,7,0,1,1,1.7,13.9,974.69,974.69,0,0,0-790.66,619.18A7,7,0,0,1,466.38,1040.1Z"/></g><g class="cls-1"><path class="cls-38" d="M474.88,1761.06a7,7,0,0,1-6.48-4.35c-48.59-118.71-73.22-244.5-73.22-373.87a983.57,983.57,0,0,1,64.66-352.24,7,7,0,0,1,13.08,5,969.69,969.69,0,0,0-63.74,347.25c0,127.55,24.28,251.55,72.17,368.57a7,7,0,0,1-3.82,9.13A7.1,7.1,0,0,1,474.88,1761.06Z"/></g><g class="cls-1"><path class="cls-39" d="M1118.46,2334.45a7.23,7.23,0,0,1-1.89-.26,985.64,985.64,0,0,1-391.65-214.72A989.52,989.52,0,0,1,468.4,1756.71a7,7,0,1,1,13-5.3,974.72,974.72,0,0,0,639,569.29,7,7,0,0,1-1.88,13.75Z"/></g><g class="cls-10"><path class="cls-40" d="M1733.79,559.07a7.07,7.07,0,0,1-2.72-.55,889,889,0,0,0-256.75-65.69,7,7,0,0,1,1.41-13.93,903.08,903.08,0,0,1,260.79,66.72,7,7,0,0,1-2.73,13.45Z"/></g><path class="cls-41" d="M1812.72,2091.3a7,7,0,0,1-3.67-13,814.13,814.13,0,0,0,382.22-587,7,7,0,1,1,13.88,1.84,824.61,824.61,0,0,1-129,345.44,833.88,833.88,0,0,1-259.74,251.66A6.92,6.92,0,0,1,1812.72,2091.3Z"/><path class="cls-42" d="M2198.22,1499.24a7.38,7.38,0,0,1-.93-.06,7,7,0,0,1-6-7.86,825.69,825.69,0,0,0,7.15-108.48A811.78,811.78,0,0,0,2046,907.91a7,7,0,0,1,11.38-8.16,825.76,825.76,0,0,1,155.08,483.09,839.67,839.67,0,0,1-7.27,110.32A7,7,0,0,1,2198.22,1499.24Z"/><g class="cls-1"><path class="cls-43" d="M2051.65,910.83a7,7,0,0,1-5.69-2.92,822.79,822.79,0,0,0-284.6-247.69,815.38,815.38,0,0,0-770.3,7.11,7,7,0,1,1-6.74-12.27,826.05,826.05,0,0,1,398.52-101.81,828.51,828.51,0,0,1,674.5,346.5,7,7,0,0,1-5.69,11.08Z"/></g><g class="cls-1"><path class="cls-44" d="M584.71,1589.79a7,7,0,0,1-6.78-5.31A830,830,0,0,1,984.32,655.06a7,7,0,1,1,6.74,12.27,817,817,0,0,0-399.55,913.76,7,7,0,0,1-5.09,8.49A7.21,7.21,0,0,1,584.71,1589.79Z"/></g><g class="cls-10"><path class="cls-45" d="M711,1864.56a7,7,0,0,1-5.72-3,822.74,822.74,0,0,1-127.33-277.12,7,7,0,0,1,13.58-3.39,809.07,809.07,0,0,0,125.17,272.42,7,7,0,0,1-5.7,11Z"/></g><g class="cls-1"><path class="cls-46" d="M1382.84,2212.42A828.58,828.58,0,0,1,705.26,1861.6a7,7,0,1,1,11.42-8.09A822.55,822.55,0,0,0,1002,2104.23a818.52,818.52,0,0,0,606,62.71,7,7,0,1,1,3.86,13.46A830.93,830.93,0,0,1,1382.84,2212.42Z"/></g><path class="cls-47" d="M1610,2180.67a7,7,0,0,1-1.93-13.73,811.14,811.14,0,0,0,201-88.61,7,7,0,0,1,7.33,11.93,825.46,825.46,0,0,1-204.5,90.14A6.86,6.86,0,0,1,1610,2180.67Z"/><path class="cls-48" d="M1889.29,959.6a7,7,0,0,1-5.33-2.47A660,660,0,0,0,1663.45,788c-88-41.61-182.46-62.71-280.61-62.71a654.47,654.47,0,0,0-391,128.82,7,7,0,1,1-8.33-11.25,668.53,668.53,0,0,1,399.31-131.57c100.23,0,196.66,21.55,286.59,64.06a673.82,673.82,0,0,1,225.19,172.68,7,7,0,0,1-5.33,11.54Z"/><g class="cls-1"><path class="cls-49" d="M843.79,1001.14a7,7,0,0,1-5.66-11.1,673.75,673.75,0,0,1,145.4-147.15,7,7,0,1,1,8.33,11.25A659.83,659.83,0,0,0,849.48,998.23,7,7,0,0,1,843.79,1001.14Z"/></g><g class="cls-1"><path class="cls-50" d="M969,1909.83a7,7,0,0,1-4.36-1.52A678.13,678.13,0,0,1,780.1,1679.23a668.69,668.69,0,0,1-68.78-296.39c0-142.13,43.85-278,126.81-392.8a7,7,0,0,1,11.35,8.19c-81.23,112.44-124.16,245.44-124.16,384.61a661.1,661.1,0,0,0,17.5,151.35A654.08,654.08,0,0,0,792.66,1673a664.08,664.08,0,0,0,180.75,224.32,7,7,0,0,1-4.37,12.47Z"/></g><g class="cls-10"><path class="cls-51" d="M1382.84,2054.35a668.72,668.72,0,0,1-418.16-146,7,7,0,1,1,8.73-11,654.72,654.72,0,0,0,409.43,143c100.07,0,196.15-21.89,285.58-65.08a7,7,0,1,1,6.09,12.6C1583.16,2032,1485,2054.35,1382.84,2054.35Z"/></g><path class="cls-52" d="M1671.47,1988.57a7,7,0,0,1-3-13.3,658.5,658.5,0,0,0,342-789.18,7,7,0,0,1,13.36-4.19,671.92,671.92,0,0,1-349.26,806A6.89,6.89,0,0,1,1671.47,1988.57Z"/><path class="cls-53" d="M2017.09,1191a7,7,0,0,1-6.68-4.91,652.77,652.77,0,0,0-126.45-229,7,7,0,1,1,10.66-9.07,666.63,666.63,0,0,1,129.15,233.84,7,7,0,0,1-6.68,9.1Z"/></g></g></svg>