<svg xmlns="http://www.w3.org/2000/svg" xmlns:xlink="http://www.w3.org/1999/xlink" viewBox="0 0 2607.6 2607.6"><defs><style>.cls-1{opacity:0.5;}.cls-2{fill:url(#linear-gradient);}.cls-3{fill:url(#radial-gradient);}.cls-4{fill:url(#linear-gradient-2);}.cls-5{fill:url(#radial-gradient-2);}.cls-6{fill:url(#linear-gradient-3);}.cls-7{fill:url(#radial-gradient-3);}.cls-8{fill:url(#linear-gradient-4);}.cls-9{fill:url(#radial-gradient-4);}.cls-10{fill:url(#radial-gradient-5);}.cls-11{fill:url(#radial-gradient-6);}.cls-12{opacity:0.3;}.cls-13{fill:url(#linear-gradient-5);}.cls-14{fill:url(#linear-gradient-6);}.cls-15{fill:url(#linear-gradient-7);}.cls-16{fill:url(#radial-gradient-7);}.cls-17{fill:url(#radial-gradient-8);}.cls-18{fill:url(#linear-gradient-8);}.cls-19{fill:url(#linear-gradient-9);}.cls-20{fill:url(#radial-gradient-9);}.cls-21{fill:url(#linear-gradient-10);}.cls-22{fill:url(#radial-gradient-10);}.cls-23{fill:url(#linear-gradient-11);}.cls-24{fill:url(#linear-gradient-12);}.cls-25{fill:url(#radial-gradient-11);}.cls-26{fill:url(#radial-gradient-12);}.cls-27{fill:url(#radial-gradient-13);}.cls-28{fill:url(#linear-gradient-13);}.cls-29{fill:url(#radial-gradient-14);}.cls-30{fill:url(#linear-gradient-14);}.cls-31{fill:url(#linear-gradient-15);}.cls-32{fill:url(#radial-gradient-15);}.cls-33{fill:url(#radial-gradient-16);}.cls-34{fill:url(#radial-gradient-17);}</style><linearGradient id="linear-gradient" x1="1672.93" y1="2427.15" x2="645.17" y2="2427.15" gradientUnits="userSpaceOnUse"><stop offset="0" stop-color="#0fc"/><stop offset="0.54" stop-color="#0cf" stop-opacity="0.46"/><stop offset="1" stop-color="#101921" stop-opacity="0"/></linearGradient><radialGradient id="radial-gradient" cx="1860.65" cy="2364.43" r="162.27" xlink:href="#linear-gradient"/><linearGradient id="linear-gradient-2" x1="1876.56" y1="1182.05" x2="2528.57" y2="1182.05" xlink:href="#linear-gradient"/><radialGradient id="radial-gradient-2" cx="1671.12" cy="164.21" r="164.07" xlink:href="#linear-gradient"/><linearGradient id="linear-gradient-3" x1="564.92" y1="208.22" x2="1465.69" y2="208.22" xlink:href="#linear-gradient"/><radialGradient id="radial-gradient-3" cx="342.98" cy="686.69" r="306.3" xlink:href="#linear-gradient"/><linearGradient id="linear-gradient-4" x1="79.04" y1="1452.39" x2="228.13" y2="1452.39" gradientUnits="userSpaceOnUse"><stop offset="0" stop-color="#101921" stop-opacity="0"/><stop offset="0.54" stop-color="#0cf" stop-opacity="0.46"/><stop offset="1" stop-color="#0fc"/></linearGradient><radialGradient id="radial-gradient-4" cx="436.65" cy="2097.28" r="232.7" xlink:href="#linear-gradient"/><radialGradient id="radial-gradient-5" cx="802.27" cy="824.8" r="196.96" xlink:href="#linear-gradient"/><radialGradient id="radial-gradient-6" cx="664.43" cy="1419.52" r="298.65" xlink:href="#linear-gradient"/><linearGradient id="linear-gradient-5" x1="1169.42" y1="1926.95" x2="761.6" y2="1926.95" xlink:href="#linear-gradient"/><linearGradient id="linear-gradient-6" x1="1558.07" y1="2026.3" x2="1155.42" y2="2026.3" xlink:href="#linear-gradient"/><linearGradient id="linear-gradient-7" x1="2054.35" y1="1404.36" x2="1544.06" y2="1404.36" xlink:href="#linear-gradient"/><radialGradient id="radial-gradient-7" cx="1723.13" cy="710.9" r="120.15" xlink:href="#linear-gradient"/><radialGradient id="radial-gradient-8" cx="1290.13" cy="595.39" r="220.73" xlink:href="#linear-gradient"/><linearGradient id="linear-gradient-8" x1="678.67" y1="2522.34" x2="1657.31" y2="2522.34" xlink:href="#linear-gradient-4"/><linearGradient id="linear-gradient-9" x1="1643.3" y1="2209.15" x2="2480.45" y2="2209.15" xlink:href="#linear-gradient-4"/><radialGradient id="radial-gradient-9" cx="2400.43" cy="1115.64" r="554.2" xlink:href="#linear-gradient"/><linearGradient id="linear-gradient-10" x1="2105.69" y1="143.05" x2="675.84" y2="143.05" xlink:href="#linear-gradient-4"/><radialGradient id="radial-gradient-10" cx="576.78" cy="237.5" r="97.71" xlink:href="#linear-gradient"/><linearGradient id="linear-gradient-11" x1="6.53" y1="741.39" x2="477.71" y2="741.39" xlink:href="#linear-gradient"/><linearGradient id="linear-gradient-12" x1="0" y1="1808.45" x2="692.67" y2="1808.45" xlink:href="#linear-gradient-4"/><radialGradient id="radial-gradient-11" cx="1403.04" cy="2226.52" r="266.06" xlink:href="#linear-gradient"/><radialGradient id="radial-gradient-12" cx="1937.55" cy="2016.54" r="168.73" xlink:href="#linear-gradient"/><radialGradient id="radial-gradient-13" cx="2191.57" cy="1250.3" r="379.94" xlink:href="#linear-gradient"/><linearGradient id="linear-gradient-13" x1="1176.69" y1="526.25" x2="2105.69" y2="526.25" xlink:href="#linear-gradient"/><radialGradient id="radial-gradient-14" cx="1930.09" cy="1543.71" r="467.52" xlink:href="#linear-gradient"/><linearGradient id="linear-gradient-14" x1="1647.75" y1="712.94" x2="2141.57" y2="712.94" xlink:href="#linear-gradient"/><linearGradient id="linear-gradient-15" x1="558.63" y1="594.07" x2="1402.99" y2="594.07" xlink:href="#linear-gradient"/><radialGradient id="radial-gradient-15" cx="485.03" cy="1012.67" r="176.49" xlink:href="#linear-gradient"/><radialGradient id="radial-gradient-16" cx="445.89" cy="1465.5" r="168.69" xlink:href="#linear-gradient"/><radialGradient id="radial-gradient-17" cx="1072.18" cy="1948.51" r="456.75" xlink:href="#linear-gradient"/></defs><title>Thorchain_AntiClockwoise</title><g id="Layer_2" data-name="Layer 2"><g id="Layer_1-2" data-name="Layer 1"><g class="cls-1"><path class="cls-2" d="M1303.8,2528.57c-233,0-459.6-65.68-655.38-189.92a7,7,0,0,1,7.5-11.82c193.53,122.82,417.56,187.74,647.88,187.74a1210.91,1210.91,0,0,0,360-54.44,7,7,0,0,1,4.16,13.37A1224.9,1224.9,0,0,1,1303.8,2528.57Z"/></g><path class="cls-3" d="M1665.92,2473.82a7,7,0,0,1-2.07-13.69,1203.41,1203.41,0,0,0,387.21-203.6,7,7,0,1,1,8.65,11,1217.32,1217.32,0,0,1-391.7,206A6.94,6.94,0,0,1,1665.92,2473.82Z"/><g class="cls-1"><path class="cls-4" d="M2197.06,2138.48a7,7,0,0,1-5.13-11.76C2400,1902.28,2514.57,1610,2514.57,1303.8a1210.54,1210.54,0,0,0-634.35-1065,7,7,0,1,1,6.67-12.3A1222.84,1222.84,0,0,1,2528.57,1303.8c0,309.77-115.91,605.4-326.37,832.44A7,7,0,0,1,2197.06,2138.48Z"/></g><path class="cls-5" d="M1883.55,239.63a6.9,6.9,0,0,1-3.33-.85,1199.39,1199.39,0,0,0-422.41-136,7,7,0,0,1,1.76-13.89,1213.14,1213.14,0,0,1,427.32,137.63,7,7,0,0,1-3.34,13.15Z"/><g class="cls-1"><path class="cls-6" d="M571.93,337.41a7,7,0,0,1-4.22-12.59A1219.35,1219.35,0,0,1,1303.8,79a1241.67,1241.67,0,0,1,155.77,9.81,7,7,0,1,1-1.76,13.89,1227,1227,0,0,0-154-9.7A1205.36,1205.36,0,0,0,576.14,336,7,7,0,0,1,571.93,337.41Z"/></g><g class="cls-1"><path class="cls-7" d="M114,1050a7.11,7.11,0,0,1-1.5-.17,7,7,0,0,1-5.34-8.33C169.48,756.07,333,501.56,567.71,324.82A7,7,0,0,1,576.14,336c-232,174.72-393.7,426.31-455.26,708.44A7,7,0,0,1,114,1050Z"/></g><path class="cls-8" d="M221.13,1868.83a7,7,0,0,1-6.22-3.79,1217.81,1217.81,0,0,1-100.5-267.82,1235.37,1235.37,0,0,1-7.21-555.76,7,7,0,0,1,13.68,3A1221.37,1221.37,0,0,0,128,1593.87a1204.29,1204.29,0,0,0,99.35,264.75,7,7,0,0,1-6.22,10.21Z"/><path class="cls-9" d="M652.16,2339.74a7,7,0,0,1-3.74-1.09A1230.15,1230.15,0,0,1,214.91,1865a7,7,0,0,1,12.44-6.42,1216.19,1216.19,0,0,0,428.57,468.21,7,7,0,0,1-3.76,12.91Z"/><g class="cls-1"><path class="cls-10" d="M616.71,1026.07a6.9,6.9,0,0,1-2.68-.54,7,7,0,0,1-3.78-9.15A753.26,753.26,0,0,1,984.85,624.2a7,7,0,1,1,5.95,12.67,739.24,739.24,0,0,0-367.62,384.88A7,7,0,0,1,616.71,1026.07Z"/></g><path class="cls-11" d="M768.61,1827a7,7,0,0,1-5-2.14,751.42,751.42,0,0,1-153.32-808.46,7,7,0,1,1,12.93,5.37,732.35,732.35,0,0,0-55.93,282c0,191.76,73.3,373.35,206.39,511.32a7,7,0,0,1-5,11.86Z"/><g class="cls-12"><path class="cls-13" d="M1162.43,2040.93a6.83,6.83,0,0,1-1.34-.13,749.12,749.12,0,0,1-397.52-216,7,7,0,1,1,10.07-9.72,738.58,738.58,0,0,0,176.83,135.11,730.75,730.75,0,0,0,213.27,76.82,7,7,0,0,1-1.31,13.88Z"/></g><path class="cls-14" d="M1303.8,2054.35a756.94,756.94,0,0,1-142.71-13.55,7,7,0,0,1,2.65-13.75,741.62,741.62,0,0,0,385-28.4,7,7,0,1,1,4.65,13.2A748.81,748.81,0,0,1,1303.8,2054.35Z"/><g class="cls-1"><path class="cls-15" d="M1551.06,2012.25a7,7,0,0,1-2.32-13.6,738.58,738.58,0,0,0,353.2-264.94c90.55-125.76,138.41-274.42,138.41-429.91a734.76,734.76,0,0,0-191.69-495.63,7,7,0,1,1,10.35-9.42,751,751,0,0,1-305.62,1213.1A7,7,0,0,1,1551.06,2012.25Z"/></g><path class="cls-16" d="M1853.83,810.46a7,7,0,0,1-5.17-2.29,738.47,738.47,0,0,0-259-183.38,7,7,0,1,1,5.44-12.9A752.32,752.32,0,0,1,1859,798.75a7,7,0,0,1-.47,9.88A6.92,6.92,0,0,1,1853.83,810.46Z"/><g class="cls-12"><path class="cls-17" d="M987.83,637.53a7,7,0,0,1-3-13.33c100.14-47.08,207.45-71,318.95-71a746,746,0,0,1,291.35,58.64,7,7,0,0,1-5.44,12.9,732.1,732.1,0,0,0-285.91-57.54c-109.43,0-214.74,23.42-313,69.62A7,7,0,0,1,987.83,637.53Z"/></g><g class="cls-1"><path class="cls-18" d="M1303.8,2607.6a1298.19,1298.19,0,0,1-621.47-157.36,7,7,0,0,1,6.68-12.31A1294.26,1294.26,0,0,0,1648.44,2547a7,7,0,0,1,3.73,13.5A1306.74,1306.74,0,0,1,1303.8,2607.6Z"/></g><g class="cls-12"><path class="cls-19" d="M1650.3,2560.79a7,7,0,0,1-1.86-13.75,1286.48,1286.48,0,0,0,485-255.66,1294.69,1294.69,0,0,0,333.67-429.9,7,7,0,1,1,12.62,6.06,1305,1305,0,0,1-827.59,693A7.07,7.07,0,0,1,1650.3,2560.79Z"/></g><g class="cls-1"><path class="cls-20" d="M2473.44,1871.51a7,7,0,0,1-6.3-10,1282.52,1282.52,0,0,0,93.62-267.22,1301.5,1301.5,0,0,0,5.13-557.66A1283.13,1283.13,0,0,0,2361.16,565a1299.18,1299.18,0,0,0-165.73-193.15,7,7,0,1,1,9.68-10.12,1306.53,1306.53,0,0,1,294.25,421.15,1296.81,1296.81,0,0,1,80.23,250.87,1315.63,1315.63,0,0,1-5.18,563.68,1297,1297,0,0,1-94.65,270.14A7,7,0,0,1,2473.44,1871.51Z"/></g><path class="cls-21" d="M2098.68,286.11a7,7,0,0,1-4.28-1.48A1289.1,1289.1,0,0,0,686.2,171.2a7,7,0,0,1-6.72-12.29A1302.41,1302.41,0,0,1,2103,273.58a7,7,0,0,1-4.3,12.53Z"/><path class="cls-22" d="M470.71,317a7,7,0,0,1-4.5-12.36A1310.08,1310.08,0,0,1,679.48,158.91a7,7,0,0,1,6.72,12.29,1295.3,1295.3,0,0,0-211,144.12A7,7,0,0,1,470.71,317Z"/><g class="cls-1"><path class="cls-23" d="M13.54,1179.82a5.74,5.74,0,0,1-.71,0,7,7,0,0,1-6.26-7.66A1290.64,1290.64,0,0,1,154.43,687.77,1309.31,1309.31,0,0,1,466.21,304.59a7,7,0,0,1,9,10.73A1295.07,1295.07,0,0,0,166.76,694.39,1276.73,1276.73,0,0,0,20.5,1173.52,7,7,0,0,1,13.54,1179.82Z"/></g><g class="cls-12"><path class="cls-24" d="M685.66,2451.08a7,7,0,0,1-3.33-.84A1301.75,1301.75,0,0,1,0,1303.8c0-43.93,2.21-88.23,6.57-131.68a7,7,0,1,1,13.93,1.4c-4.31,43-6.5,86.81-6.5,130.28A1289.51,1289.51,0,0,0,689,2437.93a7,7,0,0,1-3.35,13.15Z"/></g><g class="cls-1"><path class="cls-25" d="M1303.8,2291.46a989.83,989.83,0,0,1-266.26-36.31,7,7,0,1,1,3.76-13.48,973.63,973.63,0,0,0,722.05-79.26,7,7,0,1,1,6.61,12.33,983.24,983.24,0,0,1-466.16,116.72Z"/></g><g class="cls-1"><path class="cls-26" d="M1766.66,2175.58a7,7,0,0,1-3.31-13.17,978.37,978.37,0,0,0,339.36-301.91,7,7,0,0,1,11.48,8A992.14,992.14,0,0,1,1770,2174.74,6.89,6.89,0,0,1,1766.66,2175.58Z"/></g><g class="cls-1"><path class="cls-27" d="M2166.09,1778.24a6.9,6.9,0,0,1-3.33-.85,7,7,0,0,1-2.81-9.49A972.7,972.7,0,0,0,2093,733.46a7,7,0,0,1,11.34-8.21,987.14,987.14,0,0,1,67.89,1049.33A7,7,0,0,1,2166.09,1778.24Z"/></g><path class="cls-28" d="M2098.69,736.36a7,7,0,0,1-5.67-2.9,978.37,978.37,0,0,0-339.18-293.3,969.58,969.58,0,0,0-450-110,987.08,987.08,0,0,0-119.26,7.23,7,7,0,0,1-1.69-13.9,1002.56,1002.56,0,0,1,121-7.33,988.08,988.08,0,0,1,800.56,409.11,7,7,0,0,1-5.67,11.11Z"/><path class="cls-29" d="M1654.76,2141.57a7,7,0,0,1-2.73-13.45A897.94,897.94,0,0,0,2045.64,1804c100-148,152.78-320.91,152.78-500.19,0-120.78-23.65-237.94-70.3-348.23a7,7,0,0,1,12.9-5.45c47.38,112,71.4,231,71.4,353.68,0,182.08-53.66,357.75-155.18,508A912,912,0,0,1,1657.48,2141,7.07,7.07,0,0,1,1654.76,2141.57Z"/><g class="cls-1"><path class="cls-30" d="M2134.57,959.85a7,7,0,0,1-6.45-4.28A897.79,897.79,0,0,0,1652,479.48a7,7,0,0,1,5.45-12.9A911.84,911.84,0,0,1,2141,950.12a7,7,0,0,1-6.45,9.73Z"/></g><path class="cls-31" d="M565.62,793a7,7,0,0,1-5.72-11A916.39,916.39,0,0,1,878.13,500.85,904.8,904.8,0,0,1,1303.8,395.18a920.75,920.75,0,0,1,92.89,4.69,7,7,0,1,1-1.41,13.92,910.56,910.56,0,0,0-91.48-4.61A893.54,893.54,0,0,0,571.35,790,7,7,0,0,1,565.62,793Z"/><g class="cls-1"><path class="cls-32" d="M404.45,1246.39l-.5,0a7,7,0,0,1-6.49-7.47,905.64,905.64,0,0,1,162.44-457A7,7,0,0,1,571.35,790a891.78,891.78,0,0,0-159.93,449.9A7,7,0,0,1,404.45,1246.39Z"/></g><path class="cls-33" d="M489.61,1698.61a7,7,0,0,1-6.32-4,903.68,903.68,0,0,1-65.24-187.34,913.56,913.56,0,0,1-22.87-203.48c0-21.6.76-43.44,2.28-64.9a7,7,0,1,1,14,1c-1.49,21.14-2.24,42.64-2.24,63.92a899.19,899.19,0,0,0,22.52,200.35,889.79,889.79,0,0,0,64.22,184.44,7,7,0,0,1-3.3,9.33A6.89,6.89,0,0,1,489.61,1698.61Z"/><g class="cls-1"><path class="cls-34" d="M1303.8,2212.42c-174.92,0-344.77-49.82-491.18-144.07a910.64,910.64,0,0,1-329.33-373.73,7,7,0,1,1,12.63-6,896.81,896.81,0,0,0,324.27,368c144.15,92.79,311.38,141.84,483.61,141.84,120.78,0,237.94-23.65,348.23-70.3a7,7,0,0,1,5.45,12.9C1545.46,2188.4,1426.46,2212.42,1303.8,2212.42Z"/></g></g></g></svg>